<?xml version="1.0" standalone="no"?>
<!DOCTYPE svg PUBLIC "-//W3C//DTD SVG 20010904//EN"
 "http://www.w3.org/TR/2001/REC-SVG-20010904/DTD/svg10.dtd">
<svg version="1.0" xmlns="http://www.w3.org/2000/svg"
 width="512.000000pt" height="512.000000pt" viewBox="0 0 512.000000 512.000000"
 preserveAspectRatio="xMidYMid meet">
<metadata>
Created by potrace 1.11, written by Peter Selinger 2001-2013
</metadata>
<g transform="translate(0.000000,512.000000) scale(0.100000,-0.100000)"
fill="#000000" stroke="none">
<path d="M2369 5066 c-2 -2 -35 -7 -74 -11 -83 -8 -107 -11 -160 -21 -22 -4
-48 -7 -57 -8 -10 0 -18 -3 -18 -6 0 -3 -8 -6 -17 -6 -40 -2 -233 -53 -249
-66 -7 -5 -16 -8 -20 -6 -31 9 -451 -184 -519 -239 -6 -4 -26 -17 -45 -27 -19
-11 -37 -22 -40 -26 -3 -3 -29 -21 -57 -40 -29 -18 -53 -37 -53 -42 0 -4 -5
-8 -10 -8 -6 0 -16 -5 -23 -10 -7 -6 -21 -18 -33 -28 -133 -109 -266 -240
-369 -365 -59 -72 -162 -217 -180 -254 -8 -17 -19 -33 -23 -35 -4 -2 -18 -23
-31 -48 -13 -25 -38 -73 -57 -108 -19 -35 -34 -70 -34 -78 0 -8 -5 -14 -10
-14 -6 0 -9 -3 -8 -7 1 -5 -7 -27 -19 -49 -11 -23 -26 -63 -34 -88 -7 -25 -17
-46 -21 -46 -4 0 -7 -3 -7 -7 1 -5 0 -10 -1 -13 -1 -3 -3 -12 -5 -20 -2 -8
-15 -53 -30 -100 -27 -89 -54 -198 -60 -247 -2 -15 -4 -28 -5 -28 -2 0 -7 -28
-14 -80 -28 -204 -29 -571 -2 -704 3 -13 6 -41 8 -62 1 -22 5 -39 9 -39 4 0 7
-8 7 -17 -1 -19 9 -76 18 -105 3 -9 6 -25 8 -35 17 -86 71 -249 116 -348 12
-27 24 -59 26 -70 2 -11 8 -21 14 -23 5 -2 10 -10 10 -17 0 -22 115 -234 135
-247 6 -5 6 -8 0 -8 -7 0 -7 -3 0 -8 6 -4 36 -45 68 -92 75 -111 103 -147 179
-232 95 -108 224 -232 298 -288 18 -14 41 -32 50 -40 10 -8 28 -23 39 -33 12
-9 25 -17 29 -17 5 0 17 -8 28 -18 10 -10 37 -29 59 -42 22 -13 42 -26 45 -29
3 -4 25 -17 50 -30 25 -13 53 -31 63 -39 9 -8 17 -11 17 -6 0 5 4 4 8 -2 12
-18 278 -138 320 -145 4 0 12 -4 17 -9 12 -9 150 -51 260 -79 77 -19 107 -25
178 -36 17 -3 46 -8 62 -10 115 -20 474 -28 600 -13 111 13 150 19 165 25 8 3
33 7 55 10 45 5 80 11 80 13 0 1 7 3 15 5 130 27 422 128 459 158 8 7 16 11
17 10 6 -4 146 65 168 82 10 8 23 12 27 9 5 -3 9 -1 9 4 0 5 14 15 30 22 17 7
30 16 30 21 0 5 5 9 10 9 10 0 88 47 100 60 3 3 30 23 60 44 30 22 57 43 58
48 2 4 9 8 16 8 7 0 21 10 33 23 11 12 32 32 47 43 50 40 186 174 186 185 0 5
5 7 10 4 6 -3 10 -3 10 2 0 4 21 31 46 58 25 28 53 61 62 75 9 14 22 29 29 33
7 4 13 13 13 19 0 6 10 19 22 29 11 11 18 19 14 19 -4 0 -1 7 6 15 7 8 18 20
23 27 15 19 88 135 117 188 14 25 35 63 48 85 12 21 23 47 25 57 2 10 11 25
19 34 9 8 16 23 16 32 0 10 6 26 13 37 14 21 73 174 75 195 0 3 6 19 12 35 12
29 54 186 64 235 3 14 7 36 10 50 3 13 8 40 11 60 3 20 7 45 9 57 3 12 8 53
11 90 4 37 9 71 12 76 2 4 -1 7 -8 7 -8 0 -8 4 -1 13 11 13 10 378 -1 442 -5
27 -15 95 -23 150 -6 40 -15 91 -24 124 -5 19 -7 38 -4 43 3 4 0 8 -5 8 -6 0
-11 12 -11 26 0 14 -4 33 -10 43 -5 10 -12 33 -15 51 -3 18 -9 38 -13 44 -4 6
-7 14 -8 19 -1 4 -2 8 -3 10 -2 1 -4 11 -6 22 -11 54 -121 300 -183 410 -44
76 -174 274 -199 300 -10 11 -29 37 -43 57 -14 21 -31 38 -37 38 -7 0 -13 6
-13 13 0 14 -135 154 -235 242 -37 33 -73 66 -80 73 -8 6 -16 12 -20 12 -3 0
-16 9 -28 21 -73 67 -427 280 -507 304 -3 1 -16 6 -30 12 -104 44 -158 65
-174 68 -10 3 -35 10 -55 17 -20 7 -39 13 -43 14 -5 1 -10 3 -13 4 -7 4 -15 5
-58 14 -20 5 -40 12 -43 17 -3 5 -9 7 -14 4 -5 -3 -29 0 -52 6 -41 12 -53 14
-123 23 -16 3 -30 5 -30 6 0 2 -32 8 -85 15 -53 7 -475 17 -481 11z m1516
-795 c116 -33 251 -69 302 -81 96 -22 155 -53 161 -83 2 -10 -45 -92 -106
-185 -155 -237 -276 -432 -344 -550 -10 -18 -36 -64 -58 -103 -22 -38 -58
-100 -80 -139 -22 -38 -40 -72 -40 -74 0 -3 -14 -29 -31 -58 -41 -68 -227
-435 -306 -603 -122 -257 -244 -543 -348 -810 -25 -66 -56 -145 -69 -175 l-22
-55 -50 1 c-27 0 -92 8 -144 18 -52 9 -111 19 -130 22 -19 3 -41 7 -47 9 -7 2
-43 7 -80 10 -170 16 -207 54 -237 243 -24 157 -148 631 -227 872 -63 192
-129 377 -195 547 -39 100 -42 97 89 90 61 -4 121 -9 133 -11 11 -2 61 -7 110
-11 49 -3 103 -8 119 -11 17 -3 73 -7 125 -8 l95 -3 38 -149 c63 -249 153
-562 166 -576 3 -4 33 54 65 130 33 75 70 160 82 187 120 265 572 1317 596
1384 44 126 75 187 111 217 40 34 52 32 322 -45z m-1215 -186 c167 -29 263
-50 331 -72 l79 -26 0 -180 c0 -167 -1 -179 -17 -172 -25 9 -192 53 -226 59
-15 3 -35 7 -45 10 -113 33 -410 49 -587 32 -465 -45 -825 -283 -1019 -672
-40 -82 -88 -209 -100 -266 -3 -13 -8 -34 -11 -48 -42 -191 -48 -447 -14 -675
58 -386 252 -681 561 -850 234 -128 595 -190 938 -162 47 4 96 9 110 11 14 3
59 10 100 16 97 15 290 60 314 72 12 7 21 7 25 0 5 -8 6 -286 2 -338 -2 -20
-198 -71 -386 -100 -178 -27 -560 -27 -720 -1 -16 3 -50 8 -75 12 -25 4 -90
18 -145 31 -621 153 -1019 581 -1124 1209 -34 200 -37 577 -6 725 3 14 8 41
11 60 13 82 60 243 103 350 182 450 535 766 1021 915 30 9 64 19 75 21 11 2
29 6 40 8 78 17 129 25 190 31 39 4 72 9 74 11 7 6 460 -3 501 -11z"/>
<path d="M3701 4044 c-74 -120 -89 -150 -80 -165 17 -34 14 -37 132 155 7 11
27 44 45 74 27 43 31 56 21 68 -6 8 -15 14 -19 14 -4 0 -49 -66 -99 -146z"/>
<path d="M3612 4088 c-43 -63 -135 -224 -170 -296 -26 -55 -28 -64 -15 -77 8
-8 16 -15 19 -15 2 0 25 42 50 93 26 50 75 138 110 194 35 55 64 106 64 111 0
5 -6 15 -14 21 -12 10 -20 4 -44 -31z"/>
<path d="M2504 1972 c-31 -19 -45 -186 -23 -265 7 -28 15 -37 27 -35 18 4 19
15 10 113 -2 28 1 77 7 108 12 60 3 95 -21 79z"/>
<path d="M2379 1903 c-22 -56 8 -312 41 -346 4 -5 14 -1 23 8 12 12 14 22 7
41 -18 46 -22 78 -26 189 -2 60 -6 116 -9 122 -8 22 -25 14 -36 -14z"/>
</g>
</svg>
